<svg xmlns="http://www.w3.org/2000/svg" width="2400" height="760" viewBox="0 0 2400 760" role="img">

<rect width="2400" height="760" fill="#0B2B40"/>
<g transform="translate(-122,-90) scale(0.70)">
<path fill="#FFFFFF" opacity="1.000000" stroke="none" 
	d="
M719.491455,281.564056 
	C735.022095,307.762970 743.936584,335.920868 748.022095,365.531372 
	C753.571106,405.749634 753.041992,445.899078 744.138672,485.697357 
	C737.065308,517.315918 724.818115,546.647095 704.439453,572.109314 
	C680.400513,602.144958 648.832520,620.265381 611.769653,629.251221 
	C596.036560,633.065674 580.015320,634.803467 563.829041,635.418579 
	C551.670532,635.880493 539.515564,635.860291 527.359558,636.081482 
	C523.051392,636.159912 521.295410,634.728516 521.648621,630.303223 
	C523.670105,604.977905 535.740601,587.072815 564.135986,582.752075 
	C574.423889,581.186646 584.762451,582.132507 595.075745,581.855164 
	C598.736633,581.756775 602.444031,581.911743 606.046509,581.382019 
	C618.701233,579.521484 625.531677,569.709290 623.276123,556.986877 
	C622.956360,555.183167 622.574341,553.388733 622.311768,551.576904 
	C621.536560,546.228394 622.687378,541.606201 627.556396,538.545227 
	C630.676758,536.583618 631.601318,534.213501 629.170044,531.115784 
	C626.226257,527.365173 627.306213,524.680603 631.366882,522.861755 
	C635.075012,521.200745 635.406372,518.418701 634.274475,514.989197 
	C633.077332,511.361938 631.666687,507.807343 631.563354,503.877014 
	C631.431335,498.851990 633.442139,495.587616 638.459045,494.334320 
	C641.526489,493.567993 644.567505,492.690826 647.605164,491.811066 
	C658.091553,488.773987 659.769531,485.207733 654.715637,475.441162 
	C648.821716,464.051422 643.218079,452.437561 636.346313,441.648407 
	C629.338074,430.644989 628.002747,419.795135 630.658752,407.068146 
	C638.149414,371.175201 619.952454,339.544525 592.333740,321.999420 
	C575.959534,311.597595 557.882812,306.369080 538.571228,305.190643 
	C508.435669,303.351715 478.271057,304.762848 448.122650,304.356720 
	C442.093201,304.275513 441.315094,305.340179 441.314270,312.555298 
	C441.303772,403.546997 441.303925,494.538696 441.304932,585.530396 
	C441.305542,641.691895 441.314575,697.853455 441.313873,754.014954 
	C441.313782,762.103271 440.292938,763.123535 432.027527,763.125610 
	C398.697235,763.134094 365.366943,763.129028 332.036652,763.107422 
	C324.541138,763.102600 323.551178,761.958923 323.558655,754.323547 
	C323.614288,697.328857 323.850433,640.332947 323.544403,583.340088 
	C323.452026,566.137329 326.907074,549.197754 326.097809,531.983521 
	C320.946503,422.403229 324.915741,312.750671 323.595245,203.139099 
	C323.573181,201.306366 323.603088,199.473038 323.604950,197.639984 
	C323.608643,193.956390 325.597351,192.136093 329.130524,191.905289 
	C331.123169,191.775162 333.128174,191.811111 335.127594,191.811417 
	C404.121216,191.821930 473.115326,191.691788 542.108215,191.921173 
	C570.877625,192.016830 599.275879,195.251495 626.583679,205.074951 
	C666.538696,219.447983 697.273743,245.052765 719.491455,281.564056 
z"/>
<path fill="#FFFFFF" opacity="1.000000" stroke="none" 
	d="
M669.000000,805.244019 
	C543.339722,805.238464 418.179413,805.232788 293.019135,805.224548 
	C284.872284,805.223999 281.279541,802.898132 281.299744,797.670044 
	C281.320160,792.390625 284.852600,789.998291 293.020660,789.998169 
	C429.680237,789.995544 566.339783,790.014343 702.999390,790.025269 
	C714.165222,790.026184 725.331116,789.980591 736.496826,790.006775 
	C739.895020,790.014771 742.673096,791.234436 744.223083,794.510864 
	C745.597900,797.416992 744.892151,800.021179 743.116211,802.474426 
	C741.206421,805.112427 738.411194,805.259521 735.497559,805.256104 
	C713.498352,805.230652 691.499207,805.242859 669.000000,805.244019 
z"/>
<ellipse cx="505" cy="471" rx="34" ry="44" fill="#FFFFFF"/>
</g>
<text x="510" y="295" fill="#FFFFFF" font-family="Georgia, Times New Roman, serif"
      font-size="79" letter-spacing="-1.7">Pension Productivity Dividend</text>
<text x="515" y="355" fill="#FFFFFF" font-family="Arial, Helvetica, sans-serif"
      font-size="28" letter-spacing="0.15">AI gains measured, verified, and allocated responsibly</text>

</svg>
